<svg width="1920" height="6824" viewBox="0 0 1920 6824" fill="none" xmlns="http://www.w3.org/2000/svg">
    <g filter="url(#filter0_f_5_301)">
        <circle cx="1599" cy="3860" r="178" fill="#2A3E84"/>
    </g>
    <g filter="url(#filter1_f_5_301)">
        <circle cx="444" cy="4561" r="178" fill="#2A3E84"/>
    </g>
    <g filter="url(#filter2_f_5_301)">
        <circle cx="1619" cy="4890" r="178" fill="#2A3E84"/>
    </g>
    <g filter="url(#filter3_f_5_301)">
        <circle cx="1619" cy="6296" r="178" fill="#2A3E84"/>
    </g>
    <g filter="url(#filter4_f_5_301)">
        <circle cx="445" cy="5983" r="204" fill="#2A3E84"/>
    </g>
    <g filter="url(#filter5_f_5_301)">
        <circle cx="1602" cy="528" r="178" fill="#2A3E84"/>
    </g>
    <g filter="url(#filter6_f_5_301)">
        <circle cx="454" cy="1989" r="178" fill="#2A3E84"/>
    </g>
    <g filter="url(#filter7_f_5_301)">
        <circle cx="454" cy="2818" r="178" fill="#2A3E84"/>
    </g>
    <path d="M975.383 700.29L974.59 706.898L969.474 710.017L975.344 711.217L978.331 717.165L979.124 710.557L984.24 707.438L978.369 706.237L975.383 700.29Z"
          fill="#15BFFD"/>
    <path d="M1240.38 713.29L1239.59 719.898L1234.47 723.017L1240.34 724.217L1243.33 730.165L1244.12 723.557L1249.24 720.438L1243.37 719.237L1240.38 713.29Z"
          fill="#15BFFD"/>
    <path d="M345.635 1099.77L344.6 1108.39L337.924 1112.46L345.585 1114.03L349.482 1121.79L350.517 1113.17L357.193 1109.09L349.532 1107.53L345.635 1099.77Z"
          fill="white"/>
    <path d="M578.548 753.668L577.522 762.214L570.906 766.249L578.498 767.801L582.361 775.493L583.386 766.947L590.002 762.912L582.41 761.36L578.548 753.668Z"
          fill="#15BFFD"/>
    <g filter="url(#filter8_dddddd_5_301)">
        <path d="M1658.51 709.059L1656.63 724.732L1644.5 732.13L1658.42 734.976L1665.5 749.082L1667.38 733.41L1679.52 726.011L1665.59 723.165L1658.51 709.059Z"
              fill="#15BFFD"/>
    </g>
    <path d="M1580.02 1488.59L1578.05 1505.01L1565.33 1512.77L1579.92 1515.75L1587.35 1530.53L1589.32 1514.11L1602.03 1506.36L1587.44 1503.37L1580.02 1488.59Z"
          fill="#15BFFD"/>
    <path d="M1343.71 1410.4L1342.93 1416.93L1337.87 1420.02L1343.67 1421.2L1346.63 1427.08L1347.41 1420.55L1352.47 1417.47L1346.67 1416.28L1343.71 1410.4Z"
          fill="#15BFFD"/>
    <path d="M1612.59 2657.85L1611.45 2667.33L1604.12 2671.81L1612.54 2673.53L1616.82 2682.06L1617.96 2672.58L1625.3 2668.1L1616.88 2666.38L1612.59 2657.85Z"
          fill="#15BFFD"/>
    <path d="M1201.97 2817.96L1201.24 2824L1196.56 2826.85L1201.93 2827.95L1204.66 2833.39L1205.39 2827.35L1210.06 2824.49L1204.7 2823.4L1201.97 2817.96Z"
          fill="#15BFFD"/>
    <path d="M446.079 4285.55L444.759 4296.55L436.242 4301.74L446.016 4303.74L450.988 4313.64L452.308 4302.64L460.825 4297.45L451.052 4295.45L446.079 4285.55Z"
          fill="#15BFFD"/>
    <path d="M1661.29 4841.15L1659.97 4852.15L1651.45 4857.34L1661.23 4859.34L1666.2 4869.24L1667.52 4858.24L1676.04 4853.05L1666.26 4851.05L1661.29 4841.15Z"
          fill="#15BFFD"/>
    <path d="M1195.15 4338.7L1197.4 4342.88L1195.69 4346.79L1199.6 4345.09L1203.78 4347.33L1201.54 4343.15L1203.24 4339.24L1199.33 4340.95L1195.15 4338.7Z"
          fill="#15BFFD"/>
    <path d="M1282.97 5986.96L1281.45 5999.6L1271.67 6005.56L1282.89 6007.86L1288.6 6019.23L1290.12 6006.59L1299.91 6000.63L1288.68 5998.33L1282.97 5986.96Z"
          fill="#15BFFD"/>
    <path d="M1092.28 6140.29L1091.63 6145.72L1087.43 6148.28L1092.25 6149.27L1094.7 6154.15L1095.35 6148.72L1099.55 6146.16L1094.73 6145.18L1092.28 6140.29Z"
          fill="#15BFFD"/>
    <path d="M572.062 6237.06L571.411 6242.48L567.21 6245.05L572.031 6246.03L574.483 6250.92L575.134 6245.49L579.334 6242.93L574.514 6241.94L572.062 6237.06Z"
          fill="#15BFFD"/>
    <path d="M1504.75 3049.18L1504.03 3055.22L1499.35 3058.07L1504.72 3059.17L1507.45 3064.61L1508.17 3058.57L1512.85 3055.72L1507.48 3054.62L1504.75 3049.18Z"
          fill="#15BFFD"/>
    <path d="M390.751 2641.18L390.026 2647.22L385.348 2650.07L390.716 2651.17L393.447 2656.61L394.172 2650.57L398.85 2647.72L393.482 2646.62L390.751 2641.18Z"
          fill="#15BFFD"/>
    <path d="M471.751 5810.18L471.026 5816.22L466.348 5819.07L471.716 5820.17L474.447 5825.61L475.172 5819.57L479.85 5816.72L474.482 5815.62L471.751 5810.18Z"
          fill="#15BFFD"/>
    <path d="M583.581 2222.08L582.301 2232.75L574.041 2237.79L583.519 2239.73L588.342 2249.33L589.622 2238.66L597.882 2233.62L588.404 2231.69L583.581 2222.08Z"
          fill="#15BFFD"/>
    <path d="M1211.55 1262.67L1210.94 1267.74L1207.01 1270.13L1211.52 1271.05L1213.81 1275.62L1214.42 1270.55L1218.35 1268.15L1213.84 1267.23L1211.55 1262.67Z"
          fill="#15BFFD"/>
    <g filter="url(#filter9_f_5_301)">
        <circle cx="471" cy="639" r="178" fill="#2A3E84"/>
    </g>
    <g filter="url(#filter10_f_5_301)">
        <circle cx="1667" cy="1417" r="199" fill="#192065"/>
    </g>
    <defs>
        <filter id="filter0_f_5_301" x="1071" y="3332" width="1056" height="1056" filterUnits="userSpaceOnUse"
                color-interpolation-filters="sRGB">
            <feFlood flood-opacity="0" result="BackgroundImageFix"/>
            <feBlend mode="normal" in="SourceGraphic" in2="BackgroundImageFix" result="shape"/>
            <feGaussianBlur stdDeviation="175" result="effect1_foregroundBlur_5_301"/>
        </filter>
        <filter id="filter1_f_5_301" x="-84" y="4033" width="1056" height="1056" filterUnits="userSpaceOnUse"
                color-interpolation-filters="sRGB">
            <feFlood flood-opacity="0" result="BackgroundImageFix"/>
            <feBlend mode="normal" in="SourceGraphic" in2="BackgroundImageFix" result="shape"/>
            <feGaussianBlur stdDeviation="175" result="effect1_foregroundBlur_5_301"/>
        </filter>
        <filter id="filter2_f_5_301" x="1091" y="4362" width="1056" height="1056" filterUnits="userSpaceOnUse"
                color-interpolation-filters="sRGB">
            <feFlood flood-opacity="0" result="BackgroundImageFix"/>
            <feBlend mode="normal" in="SourceGraphic" in2="BackgroundImageFix" result="shape"/>
            <feGaussianBlur stdDeviation="175" result="effect1_foregroundBlur_5_301"/>
        </filter>
        <filter id="filter3_f_5_301" x="1091" y="5768" width="1056" height="1056" filterUnits="userSpaceOnUse"
                color-interpolation-filters="sRGB">
            <feFlood flood-opacity="0" result="BackgroundImageFix"/>
            <feBlend mode="normal" in="SourceGraphic" in2="BackgroundImageFix" result="shape"/>
            <feGaussianBlur stdDeviation="175" result="effect1_foregroundBlur_5_301"/>
        </filter>
        <filter id="filter4_f_5_301" x="-109" y="5429" width="1108" height="1108" filterUnits="userSpaceOnUse"
                color-interpolation-filters="sRGB">
            <feFlood flood-opacity="0" result="BackgroundImageFix"/>
            <feBlend mode="normal" in="SourceGraphic" in2="BackgroundImageFix" result="shape"/>
            <feGaussianBlur stdDeviation="175" result="effect1_foregroundBlur_5_301"/>
        </filter>
        <filter id="filter5_f_5_301" x="1074" y="0" width="1056" height="1056" filterUnits="userSpaceOnUse"
                color-interpolation-filters="sRGB">
            <feFlood flood-opacity="0" result="BackgroundImageFix"/>
            <feBlend mode="normal" in="SourceGraphic" in2="BackgroundImageFix" result="shape"/>
            <feGaussianBlur stdDeviation="175" result="effect1_foregroundBlur_5_301"/>
        </filter>
        <filter id="filter6_f_5_301" x="-74" y="1461" width="1056" height="1056" filterUnits="userSpaceOnUse"
                color-interpolation-filters="sRGB">
            <feFlood flood-opacity="0" result="BackgroundImageFix"/>
            <feBlend mode="normal" in="SourceGraphic" in2="BackgroundImageFix" result="shape"/>
            <feGaussianBlur stdDeviation="175" result="effect1_foregroundBlur_5_301"/>
        </filter>
        <filter id="filter7_f_5_301" x="-74" y="2290" width="1056" height="1056" filterUnits="userSpaceOnUse"
                color-interpolation-filters="sRGB">
            <feFlood flood-opacity="0" result="BackgroundImageFix"/>
            <feBlend mode="normal" in="SourceGraphic" in2="BackgroundImageFix" result="shape"/>
            <feGaussianBlur stdDeviation="175" result="effect1_foregroundBlur_5_301"/>
        </filter>
        <filter id="filter8_dddddd_5_301" x="1490.92" y="555.481" width="342.177" height="347.18"
                filterUnits="userSpaceOnUse" color-interpolation-filters="sRGB">
            <feFlood flood-opacity="0" result="BackgroundImageFix"/>
            <feColorMatrix in="SourceAlpha" type="matrix" values="0 0 0 0 0 0 0 0 0 0 0 0 0 0 0 0 0 0 127 0"
                           result="hardAlpha"/>
            <feOffset/>
            <feGaussianBlur stdDeviation="1.82832"/>
            <feColorMatrix type="matrix" values="0 0 0 0 0.14902 0 0 0 0 0.0901961 0 0 0 0 0.992157 0 0 0 1 0"/>
            <feBlend mode="normal" in2="BackgroundImageFix" result="effect1_dropShadow_5_301"/>
            <feColorMatrix in="SourceAlpha" type="matrix" values="0 0 0 0 0 0 0 0 0 0 0 0 0 0 0 0 0 0 127 0"
                           result="hardAlpha"/>
            <feOffset/>
            <feGaussianBlur stdDeviation="3.65663"/>
            <feColorMatrix type="matrix" values="0 0 0 0 0.14902 0 0 0 0 0.0901961 0 0 0 0 0.992157 0 0 0 1 0"/>
            <feBlend mode="normal" in2="effect1_dropShadow_5_301" result="effect2_dropShadow_5_301"/>
            <feColorMatrix in="SourceAlpha" type="matrix" values="0 0 0 0 0 0 0 0 0 0 0 0 0 0 0 0 0 0 127 0"
                           result="hardAlpha"/>
            <feOffset/>
            <feGaussianBlur stdDeviation="12.7982"/>
            <feColorMatrix type="matrix" values="0 0 0 0 0.14902 0 0 0 0 0.0901961 0 0 0 0 0.992157 0 0 0 1 0"/>
            <feBlend mode="normal" in2="effect2_dropShadow_5_301" result="effect3_dropShadow_5_301"/>
            <feColorMatrix in="SourceAlpha" type="matrix" values="0 0 0 0 0 0 0 0 0 0 0 0 0 0 0 0 0 0 127 0"
                           result="hardAlpha"/>
            <feOffset/>
            <feGaussianBlur stdDeviation="25.5964"/>
            <feColorMatrix type="matrix" values="0 0 0 0 0.14902 0 0 0 0 0.0901961 0 0 0 0 0.992157 0 0 0 1 0"/>
            <feBlend mode="normal" in2="effect3_dropShadow_5_301" result="effect4_dropShadow_5_301"/>
            <feColorMatrix in="SourceAlpha" type="matrix" values="0 0 0 0 0 0 0 0 0 0 0 0 0 0 0 0 0 0 127 0"
                           result="hardAlpha"/>
            <feOffset/>
            <feGaussianBlur stdDeviation="43.8796"/>
            <feColorMatrix type="matrix" values="0 0 0 0 0.14902 0 0 0 0 0.0901961 0 0 0 0 0.992157 0 0 0 1 0"/>
            <feBlend mode="normal" in2="effect4_dropShadow_5_301" result="effect5_dropShadow_5_301"/>
            <feColorMatrix in="SourceAlpha" type="matrix" values="0 0 0 0 0 0 0 0 0 0 0 0 0 0 0 0 0 0 127 0"
                           result="hardAlpha"/>
            <feOffset/>
            <feGaussianBlur stdDeviation="76.7893"/>
            <feColorMatrix type="matrix" values="0 0 0 0 0.14902 0 0 0 0 0.0901961 0 0 0 0 0.992157 0 0 0 1 0"/>
            <feBlend mode="normal" in2="effect5_dropShadow_5_301" result="effect6_dropShadow_5_301"/>
            <feBlend mode="normal" in="SourceGraphic" in2="effect6_dropShadow_5_301" result="shape"/>
        </filter>
        <filter id="filter9_f_5_301" x="-57" y="111" width="1056" height="1056" filterUnits="userSpaceOnUse"
                color-interpolation-filters="sRGB">
            <feFlood flood-opacity="0" result="BackgroundImageFix"/>
            <feBlend mode="normal" in="SourceGraphic" in2="BackgroundImageFix" result="shape"/>
            <feGaussianBlur stdDeviation="175" result="effect1_foregroundBlur_5_301"/>
        </filter>
        <filter id="filter10_f_5_301" x="1118" y="868" width="1098" height="1098" filterUnits="userSpaceOnUse"
                color-interpolation-filters="sRGB">
            <feFlood flood-opacity="0" result="BackgroundImageFix"/>
            <feBlend mode="normal" in="SourceGraphic" in2="BackgroundImageFix" result="shape"/>
            <feGaussianBlur stdDeviation="175" result="effect1_foregroundBlur_5_301"/>
        </filter>
    </defs>
</svg>
